<svg width="20" height="20" viewBox="0 0 20 20" fill="none" xmlns="http://www.w3.org/2000/svg">
<path d="M4.61332 1.76167C4.47869 1.8324 4.36594 1.93855 4.28722 2.06867C4.2085 2.19879 4.16681 2.34793 4.16666 2.50001L4.16666 17.5C4.16728 17.6518 4.20928 17.8006 4.28813 17.9303C4.36697 18.06 4.47969 18.1658 4.61415 18.2362C4.74861 18.3066 4.89974 18.3391 5.05127 18.3301C5.2028 18.3211 5.349 18.2709 5.47416 18.185L16.3075 10.685C16.4185 10.6086 16.5093 10.5063 16.572 10.3869C16.6347 10.2676 16.6675 10.1348 16.6675 10C16.6675 9.8652 16.6347 9.73241 16.572 9.61308C16.5093 9.49375 16.4185 9.39146 16.3075 9.31501L5.47416 1.81501C5.34926 1.72827 5.20297 1.67743 5.05119 1.66803C4.89942 1.65863 4.74797 1.69102 4.61332 1.76167ZM14.3692 10L5.83332 15.91L5.83332 4.09001L14.3692 10Z" fill="white"/>
</svg>
